HIERARCHY
ROOT joint_Root
{
	OFFSET 0.0 0.0 0.0
	CHANNELS 6 Xposition Yposition Zposition Zrotation Xrotation Yrotation 
	JOINT Hips
	{
		OFFSET 4.5925 91.4895 -427.239
		CHANNELS 6 Xposition Yposition Zposition Zrotation Xrotation Yrotation 
		JOINT Spine
		{
			OFFSET 15.7357 0.0 0.0
			CHANNELS 6 Xposition Yposition Zposition Zrotation Xrotation Yrotation 
			JOINT Chest
			{
				OFFSET 8.98455 -0.406207 0.0
				CHANNELS 6 Xposition Yposition Zposition Zrotation Xrotation Yrotation 
				JOINT Neck
				{
					OFFSET 16.3773 0.0 0.0
					CHANNELS 6 Xposition Yposition Zposition Zrotation Xrotation Yrotation 
					JOINT Head
					{
						OFFSET 6.45672 0.0 0.0
						CHANNELS 6 Xposition Yposition Zposition Zrotation Xrotation Yrotation 
						End Site
						{
							OFFSET 0.0 0.0 0.0
						}
					}
				}
				JOINT Shoulder_L
				{
					OFFSET 12.9942 -0.242716 4.98039
					CHANNELS 6 Xposition Yposition Zposition Zrotation Xrotation Yrotation 
					JOINT UpperArm_L
					{
						OFFSET 5.34809 0.0 0.0
						CHANNELS 6 Xposition Yposition Zposition Zrotation Xrotation Yrotation 
						JOINT LowerArm_L
						{
							OFFSET 24.3286 1.87007e-05 0.0
							CHANNELS 6 Xposition Yposition Zposition Zrotation Xrotation Yrotation 
							JOINT Hand_L
							{
								OFFSET 22.2916 0.0 0.0
								CHANNELS 6 Xposition Yposition Zposition Zrotation Xrotation Yrotation 
								End Site
								{
									OFFSET 0.0 0.0 0.0
								}
							}
						}
					}
				}
				JOINT Shoulder_R
				{
					OFFSET 12.9945 -0.242716 -4.98039
					CHANNELS 6 Xposition Yposition Zposition Zrotation Xrotation Yrotation 
					JOINT UpperArm_R
					{
						OFFSET -5.34813 0.0 0.0
						CHANNELS 6 Xposition Yposition Zposition Zrotation Xrotation Yrotation 
						JOINT LowerArm_R
						{
							OFFSET -24.3289 0.000322201 0.0
							CHANNELS 6 Xposition Yposition Zposition Zrotation Xrotation Yrotation 
							JOINT Hand_R
							{
								OFFSET -22.2915 -0.000108084 0.0
								CHANNELS 6 Xposition Yposition Zposition Zrotation Xrotation Yrotation 
								End Site
								{
									OFFSET 0.0 0.0 0.0
								}
							}
						}
					}
				}
			}
		}
		JOINT UpperLeg_L
		{
			OFFSET -2.19248 -6.46944 0.0
			CHANNELS 6 Xposition Yposition Zposition Zrotation Xrotation Yrotation 
			JOINT LowerLeg_L
			{
				OFFSET 39.0811 0.0 -1.23785e-05
				CHANNELS 6 Xposition Yposition Zposition Zrotation Xrotation Yrotation 
				JOINT Foot_L
				{
					OFFSET 40.9854 0.0 -1.26872e-05
					CHANNELS 6 Xposition Yposition Zposition Zrotation Xrotation Yrotation 
					JOINT Toes_L
					{
						OFFSET 11.7543 0.0 0.0
						CHANNELS 6 Xposition Yposition Zposition Zrotation Xrotation Yrotation 
						End Site
						{
							OFFSET 0.0 0.0 0.0
						}
					}
				}
			}
		}
		JOINT UpperLeg_R
		{
			OFFSET -2.19251 6.46944 0.0
			CHANNELS 6 Xposition Yposition Zposition Zrotation Xrotation Yrotation 
			JOINT LowerLeg_R
			{
				OFFSET -39.0811 -0.00228153 -0.0401928
				CHANNELS 6 Xposition Yposition Zposition Zrotation Xrotation Yrotation 
				JOINT Foot_R
				{
					OFFSET -40.9854 0.0 0.0
					CHANNELS 6 Xposition Yposition Zposition Zrotation Xrotation Yrotation 
					JOINT Toes_R
					{
						OFFSET -11.7543 0.0 0.0
						CHANNELS 6 Xposition Yposition Zposition Zrotation Xrotation Yrotation 
						End Site
						{
							OFFSET 0.0 0.0 0.0
						}
					}
				}
			}
		}
	}
}
MOTION
Frames:	6
Frame Time:	0.0333333
0.000000 0.000000 0.000000 0.000000 0.000000 -0.000000 127.358000 90.617100 -68.045600 91.439800 -1.415420 0.468871 15.735700 0.000005 -0.000001 92.603000 81.167100 -91.931700 8.984550 -0.406207 -0.000000 9.877740 0.809708 1.271620 16.377300 -0.000001 -0.000001 4.068220 -2.679920 1.791300 6.456720 -0.000001 -0.000000 0.398639 -2.328120 0.157018 12.994200 -0.242716 4.980390 -90.791500 2.593960 -73.025900 5.348090 -0.000007 -0.000001 -66.379600 37.900100 -17.413400 24.328600 0.000019 0.000005 7.485080 18.569700 -22.421000 22.291600 -0.000001 0.000005 11.122500 5.221200 2.182130 12.994500 -0.242716 -4.980390 88.558500 8.732770 -80.589300 -5.348130 -0.000001 -0.000004 -55.304500 28.929800 -27.007600 -24.328900 0.000322 -0.000009 0.308770 0.585714 -27.905100 -22.291500 -0.000108 -0.000004 16.253200 5.400160 -2.942140 -2.192480 -6.469440 -0.000000 -179.101000 -9.271060 -24.133700 39.081100 -0.000007 -0.000012 0.053459 -0.041562 52.133600 40.985400 -0.000006 -0.000013 -0.636929 0.317554 -63.262800 11.754300 -0.000000 0.000003 -0.003084 -0.041557 -18.266800 -2.192510 6.469440 -0.000001 178.723000 21.601300 168.762000 -39.081100 -0.002282 -0.040193 0.029912 -0.039217 34.167300 -40.985400 0.000008 0.000006 7.672870 3.829080 -72.099600 -11.754300 -0.000006 -0.000006 -0.002617 -0.036196 -18.045000
0.000000 0.000000 0.000000 0.000000 0.000000 -0.000000 127.712000 90.682000 -66.360900 91.188800 -2.345820 -0.129710 15.735700 0.000005 -0.000001 93.981100 81.203400 -93.431800 8.984550 -0.406207 -0.000000 9.780590 1.223680 0.993082 16.377300 -0.000001 -0.000001 3.662540 -2.605340 1.760980 6.456720 -0.000001 -0.000000 0.073433 -2.305390 -0.007996 12.994200 -0.242716 4.980390 -90.786700 2.557350 -72.894800 5.348090 -0.000007 -0.000001 -68.169400 36.793500 -14.645600 24.328600 0.000019 0.000005 6.947330 19.779800 -19.802700 22.291600 -0.000001 0.000005 10.502100 5.203270 2.638290 12.994500 -0.242716 -4.980390 88.612900 8.463700 -80.657800 -5.348130 -0.000001 -0.000004 -54.335400 29.100400 -28.316000 -24.328900 0.000322 -0.000009 -0.076373 -0.130952 -29.821600 -22.291500 -0.000108 -0.000004 16.750800 5.412890 -3.360720 -2.192480 -6.469440 -0.000000 -179.128000 -9.648200 -25.023300 39.081100 -0.000007 -0.000012 0.035406 -0.037091 43.666500 40.985400 -0.000006 -0.000013 -1.695870 1.780840 -62.868800 11.754300 -0.000000 0.000003 -0.002807 -0.038408 -18.138700 -2.192510 6.469440 -0.000001 178.348000 21.619100 169.964000 -39.081100 -0.002282 -0.040193 0.023822 -0.031598 33.007800 -40.985400 0.000008 0.000006 7.357140 4.915350 -72.577300 -11.754300 -0.000006 -0.000006 -0.002699 -0.037143 -18.083600
0.000000 0.000000 0.000000 0.000000 0.000000 -0.000000 128.110000 90.542800 -64.516800 90.736800 -3.222730 -0.681333 15.735700 0.000005 -0.000001 95.030800 81.213200 -94.571100 8.984550 -0.406207 -0.000000 9.736400 1.539670 0.787515 16.377300 -0.000001 -0.000001 3.162470 -2.519020 1.733950 6.456720 -0.000001 -0.000000 -0.258720 -2.283370 -0.129920 12.994200 -0.242716 4.980390 -90.756300 2.446790 -72.818800 5.348090 -0.000007 -0.000001 -69.773300 35.279400 -12.042100 24.328600 0.000019 0.000005 6.366540 20.596000 -17.598200 22.291600 -0.000001 0.000005 10.228500 5.189410 2.983200 12.994500 -0.242716 -4.980390 88.661700 8.285590 -80.791800 -5.348130 -0.000001 -0.000004 -53.451300 29.198300 -29.180800 -24.328900 0.000322 -0.000009 -0.161504 -0.258705 -31.783700 -22.291500 -0.000108 -0.000004 17.108400 5.421240 -3.639680 -2.192480 -6.469440 -0.000000 -179.068000 -10.187400 -25.531900 39.081100 -0.000007 -0.000012 0.018490 -0.026449 34.954600 40.985400 -0.000006 -0.000013 -2.052840 3.610390 -62.154700 11.754300 -0.000000 0.000003 -0.003124 -0.041999 -18.284800 -2.192510 6.469440 -0.000001 178.075000 21.401700 171.039000 -39.081100 -0.002282 -0.040193 0.017282 -0.021999 32.445400 -40.985400 0.000008 0.000006 6.950910 5.731260 -73.381400 -11.754300 -0.000006 -0.000006 -0.002779 -0.038074 -18.121500
0.000000 0.000000 0.000000 0.000000 0.000000 -0.000000 128.546000 90.220300 -62.491100 90.307200 -3.941950 -1.113340 15.735700 0.000005 -0.000001 95.511000 81.206200 -95.186500 8.984550 -0.406207 -0.000000 9.738620 1.684480 0.505080 16.377300 -0.000001 -0.000001 2.804530 -2.471930 1.748930 6.456720 -0.000001 -0.000000 -0.610486 -2.252100 -0.138619 12.994200 -0.242716 4.980390 -90.693100 2.243360 -72.827400 5.348090 -0.000007 -0.000001 -70.996300 33.811200 -9.894420 24.328600 0.000019 0.000005 5.766330 21.104300 -15.666600 22.291600 -0.000001 0.000005 10.265300 5.179970 3.216580 12.994500 -0.242716 -4.980390 88.688800 8.199390 -80.882100 -5.348130 -0.000001 -0.000004 -52.653000 29.402600 -29.780200 -24.328900 0.000322 -0.000009 -0.320110 -0.486574 -33.240800 -22.291500 -0.000108 -0.000004 17.431000 5.428690 -3.894060 -2.192480 -6.469440 -0.000000 -179.534000 -10.738300 -27.090500 39.081100 -0.000007 -0.000012 0.068647 -0.120580 29.652700 40.985400 -0.000006 -0.000013 -0.064898 4.021090 -60.778100 11.754300 -0.000000 0.000003 -0.003254 -0.043446 -18.343700 -2.192510 6.469440 -0.000001 177.673000 20.946800 172.059000 -39.081100 -0.002282 -0.040193 0.010053 -0.010588 32.541900 -40.985400 0.000008 0.000006 6.443000 6.092450 -74.607400 -11.754300 -0.000006 -0.000006 -0.051432 -0.092828 -18.071400
0.000000 0.000000 0.000000 0.000000 0.000000 -0.000000 129.191000 89.767200 -60.161900 90.582400 -4.596940 -1.613960 15.735700 0.000005 -0.000001 95.111300 81.302900 -95.192000 8.984550 -0.406207 -0.000000 9.562560 1.539350 -0.290137 16.377300 -0.000001 -0.000001 2.886570 -2.417170 1.864950 6.456720 -0.000001 -0.000000 -0.943715 -2.229960 -0.124363 12.994200 -0.242716 4.980390 -90.676200 2.187390 -72.816900 5.348090 -0.000007 -0.000001 -71.510200 32.813000 -8.498640 24.328600 0.000019 0.000005 5.141160 21.399600 -13.851900 22.291600 -0.000001 0.000005 10.083700 5.167140 3.530170 12.994500 -0.242716 -4.980390 88.712000 8.206590 -81.049000 -5.348130 -0.000001 -0.000004 -52.195000 29.492500 -29.888300 -24.328900 0.000322 -0.000009 -0.460107 -0.677033 -34.137300 -22.291500 -0.000108 -0.000004 17.526700 5.432320 -4.018840 -2.192480 -6.469440 -0.000000 179.182000 -11.984300 -29.241900 39.081100 -0.000007 -0.000012 0.030443 -0.055458 28.763200 40.985400 -0.000006 -0.000013 0.651935 2.192460 -57.047600 11.754300 -0.000000 0.000003 -0.003254 -0.043450 -18.343900 -2.192510 6.469440 -0.000001 176.436000 19.885300 172.753000 -39.081100 -0.002282 -0.040193 0.004048 -0.001142 33.402100 -40.985400 0.000008 0.000006 5.386400 5.843400 -76.102100 -11.754300 -0.000006 -0.000006 -0.002824 -0.038599 -18.142800
0.000000 0.000000 0.000000 0.000000 0.000000 -0.000000 129.954000 89.057000 -57.153900 91.112200 -5.579890 -1.613920 15.735700 0.000005 -0.000001 95.294400 81.412400 -95.913200 8.984550 -0.406207 -0.000000 9.347310 1.567420 -1.364860 16.377300 -0.000001 -0.000001 3.404600 -2.396580 1.912950 6.456720 -0.000001 -0.000000 -0.771445 -2.269140 0.069351 12.994200 -0.242716 4.980390 -90.653900 2.094890 -72.660000 5.348090 -0.000007 -0.000001 -71.535600 32.538300 -7.726140 24.328600 0.000019 0.000005 4.614890 21.938000 -12.191800 22.291600 -0.000001 0.000005 9.663030 5.153840 3.852010 12.994500 -0.242716 -4.980390 88.687100 8.220590 -80.893800 -5.348130 -0.000001 -0.000004 -52.287500 29.829600 -29.344100 -24.328900 0.000322 -0.000009 -0.431986 -0.629797 -34.379600 -22.291500 -0.000108 -0.000004 17.526800 5.433390 -4.055870 -2.192480 -6.469440 -0.000000 178.833000 -11.312600 -30.037200 39.081100 -0.000007 -0.000012 -0.039153 0.060482 32.917300 40.985400 -0.000006 -0.000013 0.658866 1.196150 -55.004500 11.754300 -0.000000 0.000003 -0.000000 -0.000001 -16.577500 -2.192510 6.469440 -0.000001 174.656000 17.832800 173.814000 -39.081100 -0.002282 -0.040193 0.001938 0.001913 35.254400 -40.985400 0.000008 0.000006 4.148530 5.019590 -78.005100 -11.754300 -0.000006 -0.000006 -0.003227 -0.043150 -18.328000
